<?xml version="1.0" encoding="UTF-8" standalone="no"?>
<!DOCTYPE svg PUBLIC "-//W3C//DTD SVG 1.1//EN"
 "http://www.w3.org/Graphics/SVG/1.1/DTD/svg11.dtd">
<!-- Generated by graphviz version 5.0.0 (20220707.1540)
 -->
<!-- Title: UmlClassDiagram Pages: 1 -->
<svg width="778pt" height="559pt"
 viewBox="0.00 0.00 778.35 559.00" xmlns="http://www.w3.org/2000/svg" xmlns:xlink="http://www.w3.org/1999/xlink">
<g id="graph0" class="graph" transform="scale(1 1) rotate(0) translate(4 555)">
<title>UmlClassDiagram</title>
<polygon fill="white" stroke="transparent" points="-4,4 -4,-555 774.35,-555 774.35,4 -4,4"/>
<!-- 0 -->
<g id="node1" class="node">
<title>0</title>
<polygon fill="#f2f2f2" stroke="black" points="0,-0.5 0,-242.9 770.35,-242.9 770.35,-0.5 0,-0.5"/>
<text text-anchor="middle" x="385.17" y="-226.3" font-family="Times,serif" font-size="14.00">Profile</text>
<text text-anchor="middle" x="385.17" y="-209.5" font-family="Times,serif" font-size="14.00">contracts/core/Profile.sol</text>
<polyline fill="none" stroke="black" points="0,-201.3 770.35,-201.3 "/>
<text text-anchor="start" x="8" y="-184.7" font-family="Times,serif" font-size="14.00">Internal:</text>
<text text-anchor="start" x="8" y="-167.9" font-family="Times,serif" font-size="14.00"> &#160;&#160;_profileById: mapping(uint256=&gt;IProfile.ProfileStruct)</text>
<text text-anchor="start" x="8" y="-151.1" font-family="Times,serif" font-size="14.00"> &#160;&#160;_profileCounter: uint256</text>
<polyline fill="none" stroke="black" points="0,-142.9 770.35,-142.9 "/>
<text text-anchor="start" x="8" y="-126.3" font-family="Times,serif" font-size="14.00">Internal:</text>
<text text-anchor="start" x="8" y="-109.5" font-family="Times,serif" font-size="14.00"> &#160;&#160;&#160;_baseURI(): string</text>
<text text-anchor="start" x="8" y="-92.7" font-family="Times,serif" font-size="14.00">External:</text>
<text text-anchor="start" x="8" y="-75.9" font-family="Times,serif" font-size="14.00"> &#160;&#160;&#160;createProfile(vars: IProfile.CreateProfileData): uint256</text>
<text text-anchor="start" x="8" y="-59.1" font-family="Times,serif" font-size="14.00"> &#160;&#160;&#160;getProfile(profileId: uint256): IProfile.ProfileStruct</text>
<text text-anchor="start" x="8" y="-42.3" font-family="Times,serif" font-size="14.00">Public:</text>
<text text-anchor="start" x="8" y="-25.5" font-family="Times,serif" font-size="14.00"> &#160;&#160;&#160;&lt;&lt;event&gt;&gt; ProfileCreated(profileId: uint256, creator: address, to: address, handle: string, imageURI: string, blockNumber: uint256)</text>
<text text-anchor="start" x="8" y="-8.7" font-family="Times,serif" font-size="14.00"> &#160;&#160;&#160;constructor()</text>
</g>
<!-- 1 -->
<g id="node4" class="node">
<title>1</title>
<polygon fill="#f2f2f2" stroke="black" points="237.03,-279.9 237.03,-396.7 533.31,-396.7 533.31,-279.9 237.03,-279.9"/>
<text text-anchor="middle" x="385.17" y="-380.1" font-family="Times,serif" font-size="14.00">&lt;&lt;Interface&gt;&gt;</text>
<text text-anchor="middle" x="385.17" y="-363.3" font-family="Times,serif" font-size="14.00">IProfile</text>
<text text-anchor="middle" x="385.17" y="-346.5" font-family="Times,serif" font-size="14.00">contracts/interface/IProfile.sol</text>
<polyline fill="none" stroke="black" points="237.03,-338.3 533.31,-338.3 "/>
<text text-anchor="start" x="245.03" y="-321.7" font-family="Times,serif" font-size="14.00">External:</text>
<text text-anchor="start" x="245.03" y="-304.9" font-family="Times,serif" font-size="14.00"> &#160;&#160;&#160;&#160;createProfile(vars: CreateProfileData): uint256</text>
<text text-anchor="start" x="245.03" y="-288.1" font-family="Times,serif" font-size="14.00"> &#160;&#160;&#160;&#160;getProfile(profileId: uint256): ProfileStruct</text>
</g>
<!-- 0&#45;&gt;1 -->
<g id="edge1" class="edge">
<title>0&#45;&gt;1</title>
<path fill="none" stroke="black" stroke-dasharray="5,2" d="M385.17,-243.17C385.17,-245.36 385.17,-247.53 385.17,-249.7"/>
<polygon fill="none" stroke="black" points="374.67,-249.82 385.17,-279.82 395.67,-249.82 374.67,-249.82"/>
</g>
<!-- 2 -->
<g id="node2" class="node">
<title>2</title>
<polygon fill="#f2f2f2" stroke="black" points="190.24,-442.1 190.24,-542.1 376.11,-542.1 376.11,-442.1 190.24,-442.1"/>
<text text-anchor="middle" x="283.17" y="-525.5" font-family="Times,serif" font-size="14.00">&lt;&lt;Struct&gt;&gt;</text>
<text text-anchor="middle" x="283.17" y="-508.7" font-family="Times,serif" font-size="14.00">ProfileStruct</text>
<text text-anchor="middle" x="283.17" y="-491.9" font-family="Times,serif" font-size="14.00">contracts/interface/IProfile.sol</text>
<polyline fill="none" stroke="black" points="190.24,-483.7 376.11,-483.7 "/>
<text text-anchor="start" x="198.24" y="-467.1" font-family="Times,serif" font-size="14.00">handle: string</text>
<text text-anchor="start" x="198.24" y="-450.3" font-family="Times,serif" font-size="14.00">imageURI: string</text>
</g>
<!-- 2&#45;&gt;1 -->
<g id="edge2" class="edge">
<title>2&#45;&gt;1</title>
<path fill="none" stroke="black" d="M322.63,-441.85C330.38,-430.82 338.49,-418.91 346.22,-407.27"/>
<polygon fill="black" stroke="black" points="346.3,-407.15 346.26,-399.94 352.9,-397.12 352.94,-404.33 346.3,-407.15"/>
</g>
<!-- 3 -->
<g id="node3" class="node">
<title>3</title>
<polygon fill="#f2f2f2" stroke="black" points="394.24,-433.7 394.24,-550.5 580.11,-550.5 580.11,-433.7 394.24,-433.7"/>
<text text-anchor="middle" x="487.17" y="-533.9" font-family="Times,serif" font-size="14.00">&lt;&lt;Struct&gt;&gt;</text>
<text text-anchor="middle" x="487.17" y="-517.1" font-family="Times,serif" font-size="14.00">CreateProfileData</text>
<text text-anchor="middle" x="487.17" y="-500.3" font-family="Times,serif" font-size="14.00">contracts/interface/IProfile.sol</text>
<polyline fill="none" stroke="black" points="394.24,-492.1 580.11,-492.1 "/>
<text text-anchor="start" x="402.24" y="-475.5" font-family="Times,serif" font-size="14.00">to: address</text>
<text text-anchor="start" x="402.24" y="-458.7" font-family="Times,serif" font-size="14.00">handle: string</text>
<text text-anchor="start" x="402.24" y="-441.9" font-family="Times,serif" font-size="14.00">imageURI: string</text>
</g>
<!-- 3&#45;&gt;1 -->
<g id="edge3" class="edge">
<title>3&#45;&gt;1</title>
<path fill="none" stroke="black" d="M455.17,-433.69C449.5,-425 443.47,-415.96 437.42,-407.07"/>
<polygon fill="black" stroke="black" points="437.39,-407.02 430.7,-404.33 430.6,-397.12 437.29,-399.81 437.39,-407.02"/>
</g>
<!-- 1&#45;&gt;2 -->
<g id="edge5" class="edge">
<title>1&#45;&gt;2</title>
<path fill="none" stroke="black" stroke-dasharray="5,2" d="M339.74,-397.12C331.54,-408.99 323.15,-421.48 315.41,-433.34"/>
<polygon fill="black" stroke="black" points="312.39,-431.56 309.9,-441.85 318.27,-435.36 312.39,-431.56"/>
</g>
<!-- 1&#45;&gt;3 -->
<g id="edge4" class="edge">
<title>1&#45;&gt;3</title>
<path fill="none" stroke="black" stroke-dasharray="5,2" d="M417.45,-397.12C423.43,-406.3 429.81,-415.84 436.18,-425.18"/>
<polygon fill="black" stroke="black" points="433.48,-427.43 442.03,-433.69 439.25,-423.47 433.48,-427.43"/>
</g>
</g>
</svg>
