<?xml version="1.0" encoding="UTF-8" standalone="no"?>
<!DOCTYPE svg PUBLIC "-//W3C//DTD SVG 1.1//EN"
 "http://www.w3.org/Graphics/SVG/1.1/DTD/svg11.dtd">
<!-- Generated by graphviz version 5.0.0 (20220707.1540)
 -->
<!-- Title: UmlClassDiagram Pages: 1 -->
<svg width="1375pt" height="889pt"
 viewBox="0.00 0.00 1375.32 888.80" xmlns="http://www.w3.org/2000/svg" xmlns:xlink="http://www.w3.org/1999/xlink">
<g id="graph0" class="graph" transform="scale(1 1) rotate(0) translate(4 884.8)">
<title>UmlClassDiagram</title>
<polygon fill="white" stroke="transparent" points="-4,4 -4,-884.8 1371.32,-884.8 1371.32,4 -4,4"/>
<!-- 0 -->
<g id="node1" class="node">
<title>0</title>
<polygon fill="#f2f2f2" stroke="black" points="0,-330.3 0,-539.1 513.4,-539.1 513.4,-330.3 0,-330.3"/>
<text text-anchor="middle" x="256.7" y="-522.5" font-family="Times,serif" font-size="14.00">NFTCollectionModule</text>
<text text-anchor="middle" x="256.7" y="-505.7" font-family="Times,serif" font-size="14.00">contracts/core/NFTCollectionModule.sol</text>
<polyline fill="none" stroke="black" points="0,-497.5 513.4,-497.5 "/>
<text text-anchor="start" x="8" y="-480.9" font-family="Times,serif" font-size="14.00">Internal:</text>
<text text-anchor="start" x="8" y="-464.1" font-family="Times,serif" font-size="14.00"> &#160;&#160;_profile: address</text>
<text text-anchor="start" x="8" y="-447.3" font-family="Times,serif" font-size="14.00"> &#160;&#160;_nfts: mapping(uint256=&gt;mapping(uint256=&gt;INFTCollectionModule.NFTStruct[]))</text>
<polyline fill="none" stroke="black" points="0,-439.1 513.4,-439.1 "/>
<text text-anchor="start" x="8" y="-422.5" font-family="Times,serif" font-size="14.00">External:</text>
<text text-anchor="start" x="8" y="-405.7" font-family="Times,serif" font-size="14.00"> &#160;&#160;&#160;processCollect(profileId: uint256, pubId: uint256, nfts: NFTStruct[]) &lt;&lt;onlyProfile&gt;&gt;</text>
<text text-anchor="start" x="8" y="-388.9" font-family="Times,serif" font-size="14.00"> &#160;&#160;&#160;getNFTs(profileId: uint256, pubId: uint256): NFTStruct[] &lt;&lt;onlyProfile&gt;&gt;</text>
<text text-anchor="start" x="8" y="-372.1" font-family="Times,serif" font-size="14.00">Public:</text>
<text text-anchor="start" x="8" y="-355.3" font-family="Times,serif" font-size="14.00"> &#160;&#160;&#160;&lt;&lt;modifier&gt;&gt; onlyProfile()</text>
<text text-anchor="start" x="8" y="-338.5" font-family="Times,serif" font-size="14.00"> &#160;&#160;&#160;constructor(profile: address)</text>
</g>
<!-- 2 -->
<g id="node4" class="node">
<title>2</title>
<polygon fill="#f2f2f2" stroke="black" points="47.29,-584.5 47.29,-701.3 466.12,-701.3 466.12,-584.5 47.29,-584.5"/>
<text text-anchor="middle" x="256.7" y="-684.7" font-family="Times,serif" font-size="14.00">&lt;&lt;Interface&gt;&gt;</text>
<text text-anchor="middle" x="256.7" y="-667.9" font-family="Times,serif" font-size="14.00">INFTCollectionModule</text>
<text text-anchor="middle" x="256.7" y="-651.1" font-family="Times,serif" font-size="14.00">contracts/interface/INFTCollectionModule.sol</text>
<polyline fill="none" stroke="black" points="47.29,-642.9 466.12,-642.9 "/>
<text text-anchor="start" x="55.29" y="-626.3" font-family="Times,serif" font-size="14.00">External:</text>
<text text-anchor="start" x="55.29" y="-609.5" font-family="Times,serif" font-size="14.00"> &#160;&#160;&#160;&#160;processCollect(profileId: uint256, pubId: uint256, nfts: NFTStruct[])</text>
<text text-anchor="start" x="55.29" y="-592.7" font-family="Times,serif" font-size="14.00"> &#160;&#160;&#160;&#160;getNFTs(profileId: uint256, pubId: uint256): NFTStruct[]</text>
</g>
<!-- 0&#45;&gt;2 -->
<g id="edge1" class="edge">
<title>0&#45;&gt;2</title>
<path fill="none" stroke="black" stroke-dasharray="5,2" d="M256.7,-539.1C256.7,-544.09 256.7,-549.08 256.7,-554.02"/>
<polygon fill="none" stroke="black" points="246.2,-554.38 256.7,-584.38 267.2,-554.38 246.2,-554.38"/>
</g>
<!-- 1 -->
<g id="node2" class="node">
<title>1</title>
<polygon fill="#f2f2f2" stroke="black" points="659.74,-0.5 659.74,-293.3 1277.67,-293.3 1277.67,-0.5 659.74,-0.5"/>
<text text-anchor="middle" x="968.7" y="-276.7" font-family="Times,serif" font-size="14.00">Profile</text>
<text text-anchor="middle" x="968.7" y="-259.9" font-family="Times,serif" font-size="14.00">contracts/core/Profile.sol</text>
<polyline fill="none" stroke="black" points="659.74,-251.7 1277.67,-251.7 "/>
<text text-anchor="start" x="667.74" y="-235.1" font-family="Times,serif" font-size="14.00">Internal:</text>
<text text-anchor="start" x="667.74" y="-218.3" font-family="Times,serif" font-size="14.00"> &#160;&#160;_profile: mapping(uint256=&gt;IProfile.ProfileStruct)</text>
<text text-anchor="start" x="667.74" y="-201.5" font-family="Times,serif" font-size="14.00"> &#160;&#160;_profileCounter: uint256</text>
<text text-anchor="start" x="667.74" y="-184.7" font-family="Times,serif" font-size="14.00"> &#160;&#160;_nftCollectionModule: address</text>
<polyline fill="none" stroke="black" points="659.74,-176.5 1277.67,-176.5 "/>
<text text-anchor="start" x="667.74" y="-159.9" font-family="Times,serif" font-size="14.00">Internal:</text>
<text text-anchor="start" x="667.74" y="-143.1" font-family="Times,serif" font-size="14.00"> &#160;&#160;&#160;_baseURI(): string</text>
<text text-anchor="start" x="667.74" y="-126.3" font-family="Times,serif" font-size="14.00">External:</text>
<text text-anchor="start" x="667.74" y="-109.5" font-family="Times,serif" font-size="14.00"> &#160;&#160;&#160;setNFTCollectionModule(nftCollectionModule: address) &lt;&lt;onlyOwner&gt;&gt;</text>
<text text-anchor="start" x="667.74" y="-92.7" font-family="Times,serif" font-size="14.00"> &#160;&#160;&#160;createProfile(vars: CreateProfileStructData): uint256</text>
<text text-anchor="start" x="667.74" y="-75.9" font-family="Times,serif" font-size="14.00"> &#160;&#160;&#160;createNFTCollection(profileId: uint256, pubId: uint256, nfts: INFTCollectionModule.NFTStruct[])</text>
<text text-anchor="start" x="667.74" y="-59.1" font-family="Times,serif" font-size="14.00"> &#160;&#160;&#160;getProfile(profileId: uint256): IProfile.ProfileStruct</text>
<text text-anchor="start" x="667.74" y="-42.3" font-family="Times,serif" font-size="14.00"> &#160;&#160;&#160;getNFTCollection(profileId: uint256, nftCollectionPubId: uint256): INFTCollectionModule.NFTStruct[]</text>
<text text-anchor="start" x="667.74" y="-25.5" font-family="Times,serif" font-size="14.00">Public:</text>
<text text-anchor="start" x="667.74" y="-8.7" font-family="Times,serif" font-size="14.00"> &#160;&#160;&#160;constructor(owner: address)</text>
</g>
<!-- 1&#45;&gt;0 -->
<g id="edge4" class="edge">
<title>1&#45;&gt;0</title>
<path fill="none" stroke="black" stroke-dasharray="5,2" d="M659.51,-272.01C614.05,-290.26 567.56,-308.92 523.06,-326.78"/>
<polygon fill="black" stroke="black" points="521.57,-323.61 513.6,-330.58 524.18,-330.1 521.57,-323.61"/>
</g>
<!-- 1&#45;&gt;2 -->
<g id="edge3" class="edge">
<title>1&#45;&gt;2</title>
<path fill="none" stroke="black" stroke-dasharray="5,2" d="M659.57,-245.08C621.96,-267.83 587.45,-295.71 560.7,-329.8 502.21,-404.35 583.12,-466.6 522.7,-539.6 509.28,-555.81 492.98,-569.46 475.12,-580.95"/>
<polygon fill="black" stroke="black" points="472.91,-578.2 466.23,-586.42 476.58,-584.16 472.91,-578.2"/>
</g>
<!-- 4 -->
<g id="node7" class="node">
<title>4</title>
<polygon fill="#f2f2f2" stroke="black" points="570.08,-334.3 570.08,-535.1 1367.32,-535.1 1367.32,-334.3 570.08,-334.3"/>
<text text-anchor="middle" x="968.7" y="-518.5" font-family="Times,serif" font-size="14.00">&lt;&lt;Interface&gt;&gt;</text>
<text text-anchor="middle" x="968.7" y="-501.7" font-family="Times,serif" font-size="14.00">IProfile</text>
<text text-anchor="middle" x="968.7" y="-484.9" font-family="Times,serif" font-size="14.00">contracts/interface/IProfile.sol</text>
<polyline fill="none" stroke="black" points="570.08,-476.7 1367.32,-476.7 "/>
<text text-anchor="start" x="578.08" y="-460.1" font-family="Times,serif" font-size="14.00">External:</text>
<text text-anchor="start" x="578.08" y="-443.3" font-family="Times,serif" font-size="14.00"> &#160;&#160;&#160;&#160;createProfile(vars: CreateProfileStructData): uint256</text>
<text text-anchor="start" x="578.08" y="-426.5" font-family="Times,serif" font-size="14.00"> &#160;&#160;&#160;&#160;createNFTCollection(profileId: uint256, pubId: uint256, nfts: INFTCollectionModule.NFTStruct[])</text>
<text text-anchor="start" x="578.08" y="-409.7" font-family="Times,serif" font-size="14.00"> &#160;&#160;&#160;&#160;getProfile(profileId: uint256): ProfileStruct</text>
<text text-anchor="start" x="578.08" y="-392.9" font-family="Times,serif" font-size="14.00"> &#160;&#160;&#160;&#160;getNFTCollection(profileId: uint256, nftCollectionPubId: uint256): INFTCollectionModule.NFTStruct[]</text>
<text text-anchor="start" x="578.08" y="-376.1" font-family="Times,serif" font-size="14.00">Public:</text>
<text text-anchor="start" x="578.08" y="-359.3" font-family="Times,serif" font-size="14.00"> &#160;&#160;&#160;&lt;&lt;event&gt;&gt; ProfileCreated(profileId: uint256, owner: address, handle: string, imageURI: string, blockNumber: uint256)</text>
<text text-anchor="start" x="578.08" y="-342.5" font-family="Times,serif" font-size="14.00"> &#160;&#160;&#160;&lt;&lt;event&gt;&gt; NFTCollectionCreated(profileId: uint256, pubId: uint256, nfts: INFTCollectionModule.NFTStruct[], blockNumber: uint256)</text>
</g>
<!-- 1&#45;&gt;4 -->
<g id="edge2" class="edge">
<title>1&#45;&gt;4</title>
<path fill="none" stroke="black" stroke-dasharray="5,2" d="M968.7,-293.31C968.7,-296.87 968.7,-300.42 968.7,-303.96"/>
<polygon fill="none" stroke="black" points="958.2,-304.07 968.7,-334.07 979.2,-304.07 958.2,-304.07"/>
</g>
<!-- 3 -->
<g id="node3" class="node">
<title>3</title>
<polygon fill="#f2f2f2" stroke="black" points="118.65,-746.7 118.65,-880.3 394.75,-880.3 394.75,-746.7 118.65,-746.7"/>
<text text-anchor="middle" x="256.7" y="-863.7" font-family="Times,serif" font-size="14.00">&lt;&lt;Struct&gt;&gt;</text>
<text text-anchor="middle" x="256.7" y="-846.9" font-family="Times,serif" font-size="14.00">NFTStruct</text>
<text text-anchor="middle" x="256.7" y="-830.1" font-family="Times,serif" font-size="14.00">contracts/interface/INFTCollectionModule.sol</text>
<polyline fill="none" stroke="black" points="118.65,-821.9 394.75,-821.9 "/>
<text text-anchor="start" x="126.65" y="-805.3" font-family="Times,serif" font-size="14.00">chainId: uint256</text>
<text text-anchor="start" x="126.65" y="-788.5" font-family="Times,serif" font-size="14.00">contractAddress: address</text>
<text text-anchor="start" x="126.65" y="-771.7" font-family="Times,serif" font-size="14.00">tokenId: uint256</text>
<text text-anchor="start" x="126.65" y="-754.9" font-family="Times,serif" font-size="14.00">tokenURI: string</text>
</g>
<!-- 3&#45;&gt;2 -->
<g id="edge5" class="edge">
<title>3&#45;&gt;2</title>
<path fill="none" stroke="black" d="M263.31,-746.51C263.48,-735.7 263.5,-724.47 263.36,-713.57"/>
<polygon fill="black" stroke="black" points="263.36,-713.45 259.25,-707.52 263.14,-701.45 267.25,-707.38 263.36,-713.45"/>
</g>
<!-- 2&#45;&gt;3 -->
<g id="edge6" class="edge">
<title>2&#45;&gt;3</title>
<path fill="none" stroke="black" stroke-dasharray="5,2" d="M250.26,-701.45C249.99,-712.67 249.9,-724.59 249.98,-736.29"/>
<polygon fill="black" stroke="black" points="246.48,-736.55 250.1,-746.51 253.48,-736.47 246.48,-736.55"/>
</g>
<!-- 5 -->
<g id="node5" class="node">
<title>5</title>
<polygon fill="#f2f2f2" stroke="black" points="773.77,-576.1 773.77,-709.7 959.64,-709.7 959.64,-576.1 773.77,-576.1"/>
<text text-anchor="middle" x="866.7" y="-693.1" font-family="Times,serif" font-size="14.00">&lt;&lt;Struct&gt;&gt;</text>
<text text-anchor="middle" x="866.7" y="-676.3" font-family="Times,serif" font-size="14.00">ProfileStruct</text>
<text text-anchor="middle" x="866.7" y="-659.5" font-family="Times,serif" font-size="14.00">contracts/interface/IProfile.sol</text>
<polyline fill="none" stroke="black" points="773.77,-651.3 959.64,-651.3 "/>
<text text-anchor="start" x="781.77" y="-634.7" font-family="Times,serif" font-size="14.00">owner: address</text>
<text text-anchor="start" x="781.77" y="-617.9" font-family="Times,serif" font-size="14.00">handle: string</text>
<text text-anchor="start" x="781.77" y="-601.1" font-family="Times,serif" font-size="14.00">imageURI: string</text>
<text text-anchor="start" x="781.77" y="-584.3" font-family="Times,serif" font-size="14.00">nftCollectionPubId: uint256</text>
</g>
<!-- 5&#45;&gt;4 -->
<g id="edge7" class="edge">
<title>5&#45;&gt;4</title>
<path fill="none" stroke="black" d="M905.72,-575.85C910.66,-566.31 915.74,-556.29 920.79,-546.17"/>
<polygon fill="black" stroke="black" points="920.91,-545.93 919.99,-538.78 926.24,-535.18 927.16,-542.33 920.91,-545.93"/>
</g>
<!-- 6 -->
<g id="node6" class="node">
<title>6</title>
<polygon fill="#f2f2f2" stroke="black" points="977.77,-592.9 977.77,-692.9 1163.64,-692.9 1163.64,-592.9 977.77,-592.9"/>
<text text-anchor="middle" x="1070.7" y="-676.3" font-family="Times,serif" font-size="14.00">&lt;&lt;Struct&gt;&gt;</text>
<text text-anchor="middle" x="1070.7" y="-659.5" font-family="Times,serif" font-size="14.00">CreateProfileStructData</text>
<text text-anchor="middle" x="1070.7" y="-642.7" font-family="Times,serif" font-size="14.00">contracts/interface/IProfile.sol</text>
<polyline fill="none" stroke="black" points="977.77,-634.5 1163.64,-634.5 "/>
<text text-anchor="start" x="985.77" y="-617.9" font-family="Times,serif" font-size="14.00">handle: string</text>
<text text-anchor="start" x="985.77" y="-601.1" font-family="Times,serif" font-size="14.00">imageURI: string</text>
</g>
<!-- 6&#45;&gt;4 -->
<g id="edge8" class="edge">
<title>6&#45;&gt;4</title>
<path fill="none" stroke="black" d="M1052.19,-592.65C1045.68,-578.43 1038,-562.31 1029.97,-545.95"/>
<polygon fill="black" stroke="black" points="1029.97,-545.94 1023.72,-542.33 1024.66,-535.18 1030.9,-538.79 1029.97,-545.94"/>
</g>
<!-- 4&#45;&gt;2 -->
<g id="edge10" class="edge">
<title>4&#45;&gt;2</title>
<path fill="none" stroke="black" stroke-dasharray="5,2" d="M625.48,-535.1C570.66,-550.97 515.44,-566.97 465.03,-581.57"/>
<polygon fill="black" stroke="black" points="463.97,-578.23 455.34,-584.37 465.92,-584.95 463.97,-578.23"/>
</g>
<!-- 4&#45;&gt;5 -->
<g id="edge11" class="edge">
<title>4&#45;&gt;5</title>
<path fill="none" stroke="black" stroke-dasharray="5,2" d="M912.75,-535.18C907.5,-545.74 902.32,-556.36 897.43,-566.58"/>
<polygon fill="black" stroke="black" points="894.16,-565.31 893.03,-575.85 900.48,-568.32 894.16,-565.31"/>
</g>
<!-- 4&#45;&gt;6 -->
<g id="edge9" class="edge">
<title>4&#45;&gt;6</title>
<path fill="none" stroke="black" stroke-dasharray="5,2" d="M1011.16,-535.18C1019.31,-551.72 1027.76,-568.39 1035.65,-583.48"/>
<polygon fill="black" stroke="black" points="1032.73,-585.44 1040.49,-592.65 1038.92,-582.17 1032.73,-585.44"/>
</g>
</g>
</svg>
