<?xml version="1.0" encoding="UTF-8" standalone="no"?>
<!DOCTYPE svg PUBLIC "-//W3C//DTD SVG 1.1//EN"
 "http://www.w3.org/Graphics/SVG/1.1/DTD/svg11.dtd">
<!-- Generated by graphviz version 5.0.0 (20220707.1540)
 -->
<!-- Title: UmlClassDiagram Pages: 1 -->
<svg width="1848pt" height="1059pt"
 viewBox="0.00 0.00 1848.14 1059.40" xmlns="http://www.w3.org/2000/svg" xmlns:xlink="http://www.w3.org/1999/xlink">
<g id="graph0" class="graph" transform="scale(1 1) rotate(0) translate(4 1055.4)">
<title>UmlClassDiagram</title>
<polygon fill="white" stroke="transparent" points="-4,4 -4,-1055.4 1844.14,-1055.4 1844.14,4 -4,4"/>
<!-- 0 -->
<g id="node1" class="node">
<title>0</title>
<polygon fill="#f2f2f2" stroke="black" points="46.7,-8.9 46.7,-301.7 408.34,-301.7 408.34,-8.9 46.7,-8.9"/>
<text text-anchor="middle" x="227.52" y="-285.1" font-family="Times,serif" font-size="14.00">IceCandy</text>
<text text-anchor="middle" x="227.52" y="-268.3" font-family="Times,serif" font-size="14.00">contracts/core/IceCandy.sol</text>
<polyline fill="none" stroke="black" points="46.7,-260.1 408.34,-260.1 "/>
<text text-anchor="start" x="54.7" y="-243.5" font-family="Times,serif" font-size="14.00">Internal:</text>
<text text-anchor="start" x="54.7" y="-226.7" font-family="Times,serif" font-size="14.00"> &#160;&#160;_tokenCounter: uint256</text>
<text text-anchor="start" x="54.7" y="-209.9" font-family="Times,serif" font-size="14.00"> &#160;&#160;_iceCandy: mapping(uint256=&gt;IIceCandy.IceCandyStruct)</text>
<text text-anchor="start" x="54.7" y="-193.1" font-family="Times,serif" font-size="14.00"> &#160;&#160;_profile: address</text>
<polyline fill="none" stroke="black" points="46.7,-184.9 408.34,-184.9 "/>
<text text-anchor="start" x="54.7" y="-168.3" font-family="Times,serif" font-size="14.00">Internal:</text>
<text text-anchor="start" x="54.7" y="-151.5" font-family="Times,serif" font-size="14.00"> &#160;&#160;&#160;_baseURI(): string</text>
<text text-anchor="start" x="54.7" y="-134.7" font-family="Times,serif" font-size="14.00">External:</text>
<text text-anchor="start" x="54.7" y="-117.9" font-family="Times,serif" font-size="14.00"> &#160;&#160;&#160;setProfile(profile: address) &lt;&lt;onlyOwner&gt;&gt;</text>
<text text-anchor="start" x="54.7" y="-101.1" font-family="Times,serif" font-size="14.00"> &#160;&#160;&#160;eat(tokenId: uint256)</text>
<text text-anchor="start" x="54.7" y="-84.3" font-family="Times,serif" font-size="14.00"> &#160;&#160;&#160;mint(to: address) &lt;&lt;onlyOwner&gt;&gt;</text>
<text text-anchor="start" x="54.7" y="-67.5" font-family="Times,serif" font-size="14.00"> &#160;&#160;&#160;isEaten(tokenId: uint256): bool</text>
<text text-anchor="start" x="54.7" y="-50.7" font-family="Times,serif" font-size="14.00">Public:</text>
<text text-anchor="start" x="54.7" y="-33.9" font-family="Times,serif" font-size="14.00"> &#160;&#160;&#160;constructor(owner: address)</text>
<text text-anchor="start" x="54.7" y="-17.1" font-family="Times,serif" font-size="14.00"> &#160;&#160;&#160;isApprovedForAll(owner: address, operator: address): bool</text>
</g>
<!-- 3 -->
<g id="node5" class="node">
<title>3</title>
<polygon fill="#f2f2f2" stroke="black" points="0,-359.5 0,-543.5 455.04,-543.5 455.04,-359.5 0,-359.5"/>
<text text-anchor="middle" x="227.52" y="-526.9" font-family="Times,serif" font-size="14.00">&lt;&lt;Interface&gt;&gt;</text>
<text text-anchor="middle" x="227.52" y="-510.1" font-family="Times,serif" font-size="14.00">IIceCandy</text>
<text text-anchor="middle" x="227.52" y="-493.3" font-family="Times,serif" font-size="14.00">contracts/interface/IIceCandy.sol</text>
<polyline fill="none" stroke="black" points="0,-485.1 455.04,-485.1 "/>
<text text-anchor="start" x="8" y="-468.5" font-family="Times,serif" font-size="14.00">External:</text>
<text text-anchor="start" x="8" y="-451.7" font-family="Times,serif" font-size="14.00"> &#160;&#160;&#160;&#160;setProfile(profile: address)</text>
<text text-anchor="start" x="8" y="-434.9" font-family="Times,serif" font-size="14.00"> &#160;&#160;&#160;&#160;eat(tokenId: uint256)</text>
<text text-anchor="start" x="8" y="-418.1" font-family="Times,serif" font-size="14.00"> &#160;&#160;&#160;&#160;mint(to: address)</text>
<text text-anchor="start" x="8" y="-401.3" font-family="Times,serif" font-size="14.00"> &#160;&#160;&#160;&#160;isEaten(tokenId: uint256): bool</text>
<text text-anchor="start" x="8" y="-384.5" font-family="Times,serif" font-size="14.00">Public:</text>
<text text-anchor="start" x="8" y="-367.7" font-family="Times,serif" font-size="14.00"> &#160;&#160;&#160;&lt;&lt;event&gt;&gt; Eaten(tokenId: uint256, owner: address, blockNumber: uint256)</text>
</g>
<!-- 0&#45;&gt;3 -->
<g id="edge1" class="edge">
<title>0&#45;&gt;3</title>
<path fill="none" stroke="black" stroke-dasharray="5,2" d="M227.52,-302.11C227.52,-311.1 227.52,-320.1 227.52,-328.97"/>
<polygon fill="none" stroke="black" points="217.02,-329.34 227.52,-359.34 238.02,-329.34 217.02,-329.34"/>
</g>
<!-- 1 -->
<g id="node2" class="node">
<title>1</title>
<polygon fill="#f2f2f2" stroke="black" points="472.82,-347.1 472.82,-555.9 986.22,-555.9 986.22,-347.1 472.82,-347.1"/>
<text text-anchor="middle" x="729.52" y="-539.3" font-family="Times,serif" font-size="14.00">NFTCollectionModule</text>
<text text-anchor="middle" x="729.52" y="-522.5" font-family="Times,serif" font-size="14.00">contracts/core/NFTCollectionModule.sol</text>
<polyline fill="none" stroke="black" points="472.82,-514.3 986.22,-514.3 "/>
<text text-anchor="start" x="480.82" y="-497.7" font-family="Times,serif" font-size="14.00">Internal:</text>
<text text-anchor="start" x="480.82" y="-480.9" font-family="Times,serif" font-size="14.00"> &#160;&#160;_profile: address</text>
<text text-anchor="start" x="480.82" y="-464.1" font-family="Times,serif" font-size="14.00"> &#160;&#160;_nfts: mapping(uint256=&gt;mapping(uint256=&gt;INFTCollectionModule.NFTStruct[]))</text>
<polyline fill="none" stroke="black" points="472.82,-455.9 986.22,-455.9 "/>
<text text-anchor="start" x="480.82" y="-439.3" font-family="Times,serif" font-size="14.00">External:</text>
<text text-anchor="start" x="480.82" y="-422.5" font-family="Times,serif" font-size="14.00"> &#160;&#160;&#160;processCollect(profileId: uint256, pubId: uint256, nfts: NFTStruct[]) &lt;&lt;onlyProfile&gt;&gt;</text>
<text text-anchor="start" x="480.82" y="-405.7" font-family="Times,serif" font-size="14.00"> &#160;&#160;&#160;getNFTs(profileId: uint256, pubId: uint256): NFTStruct[] &lt;&lt;onlyProfile&gt;&gt;</text>
<text text-anchor="start" x="480.82" y="-388.9" font-family="Times,serif" font-size="14.00">Public:</text>
<text text-anchor="start" x="480.82" y="-372.1" font-family="Times,serif" font-size="14.00"> &#160;&#160;&#160;&lt;&lt;modifier&gt;&gt; onlyProfile()</text>
<text text-anchor="start" x="480.82" y="-355.3" font-family="Times,serif" font-size="14.00"> &#160;&#160;&#160;constructor(profile: address)</text>
</g>
<!-- 5 -->
<g id="node7" class="node">
<title>5</title>
<polygon fill="#f2f2f2" stroke="black" points="663.1,-763.5 663.1,-880.3 1081.93,-880.3 1081.93,-763.5 663.1,-763.5"/>
<text text-anchor="middle" x="872.52" y="-863.7" font-family="Times,serif" font-size="14.00">&lt;&lt;Interface&gt;&gt;</text>
<text text-anchor="middle" x="872.52" y="-846.9" font-family="Times,serif" font-size="14.00">INFTCollectionModule</text>
<text text-anchor="middle" x="872.52" y="-830.1" font-family="Times,serif" font-size="14.00">contracts/interface/INFTCollectionModule.sol</text>
<polyline fill="none" stroke="black" points="663.1,-821.9 1081.93,-821.9 "/>
<text text-anchor="start" x="671.1" y="-805.3" font-family="Times,serif" font-size="14.00">External:</text>
<text text-anchor="start" x="671.1" y="-788.5" font-family="Times,serif" font-size="14.00"> &#160;&#160;&#160;&#160;processCollect(profileId: uint256, pubId: uint256, nfts: NFTStruct[])</text>
<text text-anchor="start" x="671.1" y="-771.7" font-family="Times,serif" font-size="14.00"> &#160;&#160;&#160;&#160;getNFTs(profileId: uint256, pubId: uint256): NFTStruct[]</text>
</g>
<!-- 1&#45;&gt;5 -->
<g id="edge2" class="edge">
<title>1&#45;&gt;5</title>
<path fill="none" stroke="black" stroke-dasharray="5,2" d="M769.73,-556.1C791.67,-612.62 818.51,-681.76 839.26,-735.21"/>
<polygon fill="none" stroke="black" points="829.59,-739.33 850.24,-763.5 849.17,-731.73 829.59,-739.33"/>
</g>
<!-- 2 -->
<g id="node3" class="node">
<title>2</title>
<polygon fill="#f2f2f2" stroke="black" points="1132.55,-0.5 1132.55,-310.1 1750.48,-310.1 1750.48,-0.5 1132.55,-0.5"/>
<text text-anchor="middle" x="1441.52" y="-293.5" font-family="Times,serif" font-size="14.00">Profile</text>
<text text-anchor="middle" x="1441.52" y="-276.7" font-family="Times,serif" font-size="14.00">contracts/core/Profile.sol</text>
<polyline fill="none" stroke="black" points="1132.55,-268.5 1750.48,-268.5 "/>
<text text-anchor="start" x="1140.55" y="-251.9" font-family="Times,serif" font-size="14.00">Internal:</text>
<text text-anchor="start" x="1140.55" y="-235.1" font-family="Times,serif" font-size="14.00"> &#160;&#160;_profile: mapping(uint256=&gt;IProfile.ProfileStruct)</text>
<text text-anchor="start" x="1140.55" y="-218.3" font-family="Times,serif" font-size="14.00"> &#160;&#160;_profileCounter: uint256</text>
<text text-anchor="start" x="1140.55" y="-201.5" font-family="Times,serif" font-size="14.00"> &#160;&#160;_nftCollectionModule: address</text>
<polyline fill="none" stroke="black" points="1132.55,-193.3 1750.48,-193.3 "/>
<text text-anchor="start" x="1140.55" y="-176.7" font-family="Times,serif" font-size="14.00">Internal:</text>
<text text-anchor="start" x="1140.55" y="-159.9" font-family="Times,serif" font-size="14.00"> &#160;&#160;&#160;_createNFTCollection(profileId: uint256, pubId: uint256, nfts: INFTCollectionModule.NFTStruct[])</text>
<text text-anchor="start" x="1140.55" y="-143.1" font-family="Times,serif" font-size="14.00"> &#160;&#160;&#160;_baseURI(): string</text>
<text text-anchor="start" x="1140.55" y="-126.3" font-family="Times,serif" font-size="14.00">External:</text>
<text text-anchor="start" x="1140.55" y="-109.5" font-family="Times,serif" font-size="14.00"> &#160;&#160;&#160;setNFTCollectionModule(nftCollectionModule: address) &lt;&lt;onlyOwner&gt;&gt;</text>
<text text-anchor="start" x="1140.55" y="-92.7" font-family="Times,serif" font-size="14.00"> &#160;&#160;&#160;createProfile(vars: CreateProfileStructData): uint256</text>
<text text-anchor="start" x="1140.55" y="-75.9" font-family="Times,serif" font-size="14.00"> &#160;&#160;&#160;getProfile(profileId: uint256): IProfile.ProfileStruct</text>
<text text-anchor="start" x="1140.55" y="-59.1" font-family="Times,serif" font-size="14.00"> &#160;&#160;&#160;getNFTCollection(profileId: uint256, nftCollectionPubId: uint256): INFTCollectionModule.NFTStruct[]</text>
<text text-anchor="start" x="1140.55" y="-42.3" font-family="Times,serif" font-size="14.00">Public:</text>
<text text-anchor="start" x="1140.55" y="-25.5" font-family="Times,serif" font-size="14.00"> &#160;&#160;&#160;constructor(owner: address)</text>
<text text-anchor="start" x="1140.55" y="-8.7" font-family="Times,serif" font-size="14.00"> &#160;&#160;&#160;createNFTCollection(profileId: uint256, nfts: INFTCollectionModule.NFTStruct[])</text>
</g>
<!-- 2&#45;&gt;1 -->
<g id="edge5" class="edge">
<title>2&#45;&gt;1</title>
<path fill="none" stroke="black" stroke-dasharray="5,2" d="M1132.33,-284.06C1084.57,-303.79 1035.66,-324 989.13,-343.23"/>
<polygon fill="black" stroke="black" points="987.77,-340 979.86,-347.06 990.44,-346.47 987.77,-340"/>
</g>
<!-- 2&#45;&gt;5 -->
<g id="edge4" class="edge">
<title>2&#45;&gt;5</title>
<path fill="none" stroke="black" stroke-dasharray="5,2" d="M1132.48,-259.79C1094.8,-283.33 1060.24,-311.94 1033.52,-346.6 975.66,-421.65 1024.18,-466.08 995.52,-556.4 973.3,-626.44 936.75,-702.06 909.25,-754.43"/>
<polygon fill="black" stroke="black" points="906.16,-752.81 904.58,-763.28 912.34,-756.08 906.16,-752.81"/>
</g>
<!-- 7 -->
<g id="node10" class="node">
<title>7</title>
<polygon fill="#f2f2f2" stroke="black" points="1042.9,-351.1 1042.9,-551.9 1840.14,-551.9 1840.14,-351.1 1042.9,-351.1"/>
<text text-anchor="middle" x="1441.52" y="-535.3" font-family="Times,serif" font-size="14.00">&lt;&lt;Interface&gt;&gt;</text>
<text text-anchor="middle" x="1441.52" y="-518.5" font-family="Times,serif" font-size="14.00">IProfile</text>
<text text-anchor="middle" x="1441.52" y="-501.7" font-family="Times,serif" font-size="14.00">contracts/interface/IProfile.sol</text>
<polyline fill="none" stroke="black" points="1042.9,-493.5 1840.14,-493.5 "/>
<text text-anchor="start" x="1050.9" y="-476.9" font-family="Times,serif" font-size="14.00">External:</text>
<text text-anchor="start" x="1050.9" y="-460.1" font-family="Times,serif" font-size="14.00"> &#160;&#160;&#160;&#160;createProfile(vars: CreateProfileStructData): uint256</text>
<text text-anchor="start" x="1050.9" y="-443.3" font-family="Times,serif" font-size="14.00"> &#160;&#160;&#160;&#160;createNFTCollection(profileId: uint256, nfts: INFTCollectionModule.NFTStruct[])</text>
<text text-anchor="start" x="1050.9" y="-426.5" font-family="Times,serif" font-size="14.00"> &#160;&#160;&#160;&#160;getProfile(profileId: uint256): ProfileStruct</text>
<text text-anchor="start" x="1050.9" y="-409.7" font-family="Times,serif" font-size="14.00"> &#160;&#160;&#160;&#160;getNFTCollection(profileId: uint256, nftCollectionPubId: uint256): INFTCollectionModule.NFTStruct[]</text>
<text text-anchor="start" x="1050.9" y="-392.9" font-family="Times,serif" font-size="14.00">Public:</text>
<text text-anchor="start" x="1050.9" y="-376.1" font-family="Times,serif" font-size="14.00"> &#160;&#160;&#160;&lt;&lt;event&gt;&gt; ProfileCreated(profileId: uint256, owner: address, handle: string, imageURI: string, blockNumber: uint256)</text>
<text text-anchor="start" x="1050.9" y="-359.3" font-family="Times,serif" font-size="14.00"> &#160;&#160;&#160;&lt;&lt;event&gt;&gt; NFTCollectionCreated(profileId: uint256, pubId: uint256, nfts: INFTCollectionModule.NFTStruct[], blockNumber: uint256)</text>
</g>
<!-- 2&#45;&gt;7 -->
<g id="edge3" class="edge">
<title>2&#45;&gt;7</title>
<path fill="none" stroke="black" stroke-dasharray="5,2" d="M1441.52,-310.29C1441.52,-313.73 1441.52,-317.17 1441.52,-320.59"/>
<polygon fill="none" stroke="black" points="1431.02,-320.86 1441.52,-350.86 1452.02,-320.86 1431.02,-320.86"/>
</g>
<!-- 4 -->
<g id="node4" class="node">
<title>4</title>
<polygon fill="#f2f2f2" stroke="black" points="426.81,-113.7 426.81,-196.9 628.22,-196.9 628.22,-113.7 426.81,-113.7"/>
<text text-anchor="middle" x="527.52" y="-180.3" font-family="Times,serif" font-size="14.00">&lt;&lt;Struct&gt;&gt;</text>
<text text-anchor="middle" x="527.52" y="-163.5" font-family="Times,serif" font-size="14.00">IceCandyStruct</text>
<text text-anchor="middle" x="527.52" y="-146.7" font-family="Times,serif" font-size="14.00">contracts/interface/IIceCandy.sol</text>
<polyline fill="none" stroke="black" points="426.81,-138.5 628.22,-138.5 "/>
<text text-anchor="start" x="434.81" y="-121.9" font-family="Times,serif" font-size="14.00">isEaten: bool</text>
</g>
<!-- 4&#45;&gt;3 -->
<g id="edge6" class="edge">
<title>4&#45;&gt;3</title>
<path fill="none" stroke="black" d="M503.55,-196.99C483.11,-229.76 451.68,-275.91 417.52,-310.6 403.58,-324.75 388.11,-338.56 372.18,-351.65"/>
<polygon fill="black" stroke="black" points="372.09,-351.72 369.94,-358.61 362.76,-359.27 364.91,-352.39 372.09,-351.72"/>
</g>
<!-- 6 -->
<g id="node6" class="node">
<title>6</title>
<polygon fill="#f2f2f2" stroke="black" points="734.47,-917.3 734.47,-1050.9 1010.57,-1050.9 1010.57,-917.3 734.47,-917.3"/>
<text text-anchor="middle" x="872.52" y="-1034.3" font-family="Times,serif" font-size="14.00">&lt;&lt;Struct&gt;&gt;</text>
<text text-anchor="middle" x="872.52" y="-1017.5" font-family="Times,serif" font-size="14.00">NFTStruct</text>
<text text-anchor="middle" x="872.52" y="-1000.7" font-family="Times,serif" font-size="14.00">contracts/interface/INFTCollectionModule.sol</text>
<polyline fill="none" stroke="black" points="734.47,-992.5 1010.57,-992.5 "/>
<text text-anchor="start" x="742.47" y="-975.9" font-family="Times,serif" font-size="14.00">chainId: uint256</text>
<text text-anchor="start" x="742.47" y="-959.1" font-family="Times,serif" font-size="14.00">contractAddress: address</text>
<text text-anchor="start" x="742.47" y="-942.3" font-family="Times,serif" font-size="14.00">tokenId: uint256</text>
<text text-anchor="start" x="742.47" y="-925.5" font-family="Times,serif" font-size="14.00">tokenURI: string</text>
</g>
<!-- 6&#45;&gt;5 -->
<g id="edge7" class="edge">
<title>6&#45;&gt;5</title>
<path fill="none" stroke="black" d="M879.17,-917.19C879.28,-909.16 879.3,-900.94 879.22,-892.85"/>
<polygon fill="black" stroke="black" points="879.22,-892.73 875.13,-886.8 879.03,-880.74 883.12,-886.67 879.22,-892.73"/>
</g>
<!-- 5&#45;&gt;6 -->
<g id="edge8" class="edge">
<title>5&#45;&gt;6</title>
<path fill="none" stroke="black" stroke-dasharray="5,2" d="M866.01,-880.74C865.82,-889.24 865.74,-898.11 865.78,-906.91"/>
<polygon fill="black" stroke="black" points="862.28,-907.22 865.86,-917.19 869.28,-907.16 862.28,-907.22"/>
</g>
<!-- 8 -->
<g id="node8" class="node">
<title>8</title>
<polygon fill="#f2f2f2" stroke="black" points="1112.58,-592.9 1112.58,-726.5 1298.46,-726.5 1298.46,-592.9 1112.58,-592.9"/>
<text text-anchor="middle" x="1205.52" y="-709.9" font-family="Times,serif" font-size="14.00">&lt;&lt;Struct&gt;&gt;</text>
<text text-anchor="middle" x="1205.52" y="-693.1" font-family="Times,serif" font-size="14.00">ProfileStruct</text>
<text text-anchor="middle" x="1205.52" y="-676.3" font-family="Times,serif" font-size="14.00">contracts/interface/IProfile.sol</text>
<polyline fill="none" stroke="black" points="1112.58,-668.1 1298.46,-668.1 "/>
<text text-anchor="start" x="1120.58" y="-651.5" font-family="Times,serif" font-size="14.00">owner: address</text>
<text text-anchor="start" x="1120.58" y="-634.7" font-family="Times,serif" font-size="14.00">handle: string</text>
<text text-anchor="start" x="1120.58" y="-617.9" font-family="Times,serif" font-size="14.00">imageURI: string</text>
<text text-anchor="start" x="1120.58" y="-601.1" font-family="Times,serif" font-size="14.00">nftCollectionPubId: uint256</text>
</g>
<!-- 8&#45;&gt;7 -->
<g id="edge10" class="edge">
<title>8&#45;&gt;7</title>
<path fill="none" stroke="black" d="M1287.47,-592.65C1299.66,-582.2 1312.42,-571.17 1325.15,-560.06"/>
<polygon fill="black" stroke="black" points="1325.38,-559.87 1327.26,-552.91 1334.41,-551.98 1332.53,-558.94 1325.38,-559.87"/>
</g>
<!-- 9 -->
<g id="node9" class="node">
<title>9</title>
<polygon fill="#f2f2f2" stroke="black" points="1316.47,-601.3 1316.47,-718.1 1566.56,-718.1 1566.56,-601.3 1316.47,-601.3"/>
<text text-anchor="middle" x="1441.52" y="-701.5" font-family="Times,serif" font-size="14.00">&lt;&lt;Struct&gt;&gt;</text>
<text text-anchor="middle" x="1441.52" y="-684.7" font-family="Times,serif" font-size="14.00">CreateProfileStructData</text>
<text text-anchor="middle" x="1441.52" y="-667.9" font-family="Times,serif" font-size="14.00">contracts/interface/IProfile.sol</text>
<polyline fill="none" stroke="black" points="1316.47,-659.7 1566.56,-659.7 "/>
<text text-anchor="start" x="1324.47" y="-643.1" font-family="Times,serif" font-size="14.00">handle: string</text>
<text text-anchor="start" x="1324.47" y="-626.3" font-family="Times,serif" font-size="14.00">imageURI: string</text>
<text text-anchor="start" x="1324.47" y="-609.5" font-family="Times,serif" font-size="14.00">nfts: INFTCollectionModule.NFTStruct[]</text>
</g>
<!-- 9&#45;&gt;5 -->
<g id="edge9" class="edge">
<title>9&#45;&gt;5</title>
<path fill="none" stroke="black" stroke-dasharray="5,2" d="M1330.54,-718.17C1322.84,-721.36 1315.12,-724.35 1307.52,-727 1238.81,-751 1161.78,-770.05 1091.84,-784.54"/>
<polygon fill="black" stroke="black" points="1091.11,-781.12 1082.02,-786.56 1092.52,-787.98 1091.11,-781.12"/>
</g>
<!-- 9&#45;&gt;7 -->
<g id="edge11" class="edge">
<title>9&#45;&gt;7</title>
<path fill="none" stroke="black" d="M1447.64,-601.22C1447.98,-589.6 1448.19,-577.01 1448.25,-564.24"/>
<polygon fill="black" stroke="black" points="1448.25,-563.98 1444.26,-557.97 1448.27,-551.98 1452.26,-557.98 1448.25,-563.98"/>
</g>
<!-- 7&#45;&gt;5 -->
<g id="edge13" class="edge">
<title>7&#45;&gt;5</title>
<path fill="none" stroke="black" stroke-dasharray="5,2" d="M1552.76,-551.91C1561.91,-564.63 1569.82,-578.2 1575.52,-592.4 1597.82,-647.91 1614.92,-681.99 1575.52,-727 1543.68,-763.37 1286.43,-790.45 1092.25,-805.95"/>
<polygon fill="black" stroke="black" points="1091.88,-802.47 1082.18,-806.75 1092.43,-809.45 1091.88,-802.47"/>
</g>
<!-- 7&#45;&gt;8 -->
<g id="edge14" class="edge">
<title>7&#45;&gt;8</title>
<path fill="none" stroke="black" stroke-dasharray="5,2" d="M1320.92,-551.98C1307.82,-563.4 1294.76,-574.89 1282.38,-585.88"/>
<polygon fill="black" stroke="black" points="1279.92,-583.38 1274.77,-592.65 1284.57,-588.61 1279.92,-583.38"/>
</g>
<!-- 7&#45;&gt;9 -->
<g id="edge12" class="edge">
<title>7&#45;&gt;9</title>
<path fill="none" stroke="black" stroke-dasharray="5,2" d="M1434.77,-551.98C1434.75,-565.17 1434.87,-578.45 1435.13,-590.93"/>
<polygon fill="black" stroke="black" points="1431.64,-591.31 1435.39,-601.22 1438.64,-591.13 1431.64,-591.31"/>
</g>
</g>
</svg>
